<svg width="60" height="60" viewBox="0 0 60 60" fill="none" xmlns="http://www.w3.org/2000/svg">
<g clip-path="url(#clip0)">
<path d="M30.0001 60.0001C46.5686 60.0001 60.0001 46.5686 60.0001 30.0001C60.0001 13.4315 46.5686 0 30.0001 0C13.4315 0 0 13.4315 0 30.0001C0 46.5686 13.4315 60.0001 30.0001 60.0001Z" fill="#FFC10E"/>
<path d="M20.8812 24.3639C23.4834 24.3639 25.5928 22.2545 25.5928 19.6524C25.5928 17.0502 23.4834 14.9408 20.8812 14.9408C18.2791 14.9408 16.1697 17.0502 16.1697 19.6524C16.1697 22.2545 18.2791 24.3639 20.8812 24.3639Z" fill="#333333"/>
<path d="M38.6974 24.3639C41.2995 24.3639 43.409 22.2545 43.409 19.6524C43.409 17.0502 41.2995 14.9408 38.6974 14.9408C36.0953 14.9408 33.9858 17.0502 33.9858 19.6524C33.9858 22.2545 36.0953 24.3639 38.6974 24.3639Z" fill="#333333"/>
<path d="M13.3284 41.3454C24.2649 41.3454 35.202 41.3454 46.1385 41.3454C47.6662 41.3454 47.6662 38.9768 46.1385 38.9768C35.202 38.9768 24.2649 38.9768 13.3284 38.9768C11.8007 38.9768 11.8007 41.3454 13.3284 41.3454Z" fill="#333333"/>
</g>
<defs>
<clipPath id="clip0">
<rect width="60" height="60" fill="white"/>
</clipPath>
</defs>
</svg>
