<svg width="57" height="57" viewBox="0 0 57 57" fill="none" xmlns="http://www.w3.org/2000/svg">
<path d="M49.495 10.9487C48.282 9.73512 46.8417 8.7724 45.2565 8.11556C43.6713 7.45873 41.9722 7.12065 40.2563 7.12065C38.5404 7.12065 36.8413 7.45873 35.2561 8.11556C33.6709 8.7724 32.2306 9.73512 31.0175 10.9487L28.5 13.4662L25.9825 10.9487C23.5323 8.49847 20.209 7.12192 16.7438 7.12192C13.2786 7.12192 9.95531 8.49847 7.50504 10.9487C5.05477 13.399 3.67822 16.7223 3.67822 20.1875C3.67822 23.6527 5.05477 26.976 7.50504 29.4262L10.0225 31.9437L28.5 50.4212L46.9775 31.9437L49.495 29.4262C50.7087 28.2132 51.6714 26.7729 52.3282 25.1877C52.985 23.6025 53.3231 21.9034 53.3231 20.1875C53.3231 18.4716 52.985 16.7725 52.3282 15.1873C51.6714 13.6021 50.7087 12.1618 49.495 10.9487V10.9487Z" stroke="#212D59" stroke-width="4.75" stroke-linecap="round" stroke-linejoin="round"/>
</svg>
